<?xml version="1.0" encoding="UTF-8"?>
<svg xmlns="http://www.w3.org/2000/svg" width="1200" height="847" viewBox="0 0 1200 847">
<title>桌面端 · 导入主密钥</title>
<defs><clipPath id="clip-skimportmasterkeyx294"><rect x="0" y="0" width="1200" height="823" rx="8"/></clipPath><clipPath id="clip-sknav0x314"><rect x="20" y="135" width="168" height="44" rx="8"/></clipPath><clipPath id="clip-sknav1x318"><rect x="20" y="187" width="168" height="44" rx="8"/></clipPath><clipPath id="clip-sknav2x322"><rect x="20" y="239" width="168" height="44" rx="8"/></clipPath><clipPath id="clip-327634x326"><rect x="20" y="315" width="168" height="108" rx="8"/></clipPath><clipPath id="clip-327639x331"><rect x="32" y="380" width="144" height="3" rx="2"/></clipPath><clipPath id="clip-327645x337"><rect x="20" y="763" width="168" height="40" rx="8"/></clipPath><clipPath id="clip-327655x347"><rect x="240" y="153" width="928" height="460" rx="12"/></clipPath><clipPath id="clip-skimpfilex348"><rect x="264" y="177" width="532" height="96" rx="12"/></clipPath><clipPath id="clip-skimppickx351"><rect x="1048" y="208" width="96" height="34" rx="8"/></clipPath><clipPath id="clip-skr22439118x355"><rect x="264" y="321.2" width="532" height="46" rx="8"/></clipPath><clipPath id="clip-skr224310358x362"><rect x="264" y="445.2" width="532" height="46" rx="8"/></clipPath><clipPath id="clip-skimpgox368"><rect x="612" y="545" width="168" height="44" rx="8"/></clipPath><clipPath id="clip-skimpcancelx370"><rect x="792" y="545" width="106" height="44" rx="8"/></clipPath></defs>
<rect width="1200" height="847" fill="#FFFFFF"/>
<g clip-path="url(#clip-skimportmasterkeyx294)"><rect x="0" y="0" width="1200" height="823" rx="8" fill="#F3F5F6" stroke="#DFE5E7" stroke-width="1"/>
<rect x="0" y="0" width="1200" height="36" rx="0" fill="#172C31"/>
<text font-family="Noto Sans SC, sans-serif" font-size="11" font-weight="400" fill="#96AFB3" text-anchor="start" x="16" y="22.06">密匣 SecretKeeper</text>
<rect x="1104" y="11.5" width="80" height="13" rx="0" fill="none"/>
<rect x="1104" y="11.5" width="12" height="12" rx="0" fill="none"/>
<path d="M0 -0.5C-0.276142 -0.5 -0.5 -0.276142 -0.5 0C-0.5 0.276142 -0.276142 0.5 0 0.5L0 0L0 -0.5ZM7.0008 0.5C7.27694 0.5 7.5008 0.276142 7.5008 0C7.5008 -0.276142 7.27694 -0.5 7.0008 -0.5L7.0008 0L7.0008 0.5ZM0 0L0 0.5L7.0008 0.5L7.0008 0L7.0008 -0.5L0 -0.5L0 0Z" transform="translate(1106.5,17.5)" fill="none" stroke="#96AFB3" stroke-width="1" stroke-linecap="round" stroke-linejoin="round"/>
<rect x="1138" y="11.5" width="11" height="11" rx="0" fill="none"/>
<path d="M0.916667 0L0.916667 0.5L7.33333 0.5L7.33333 0L7.33333 -0.5L0.916667 -0.5L0.916667 0ZM7.33333 0L7.33333 0.5C7.56345 0.5 7.75 0.686548 7.75 0.916667L8.25 0.916667L8.75 0.916667C8.75 0.134263 8.11574 -0.5 7.33333 -0.5L7.33333 0ZM8.25 0.916667L7.75 0.916667L7.75 7.33333L8.25 7.33333L8.75 7.33333L8.75 0.916667L8.25 0.916667ZM8.25 7.33333L7.75 7.33333C7.75 7.56345 7.56345 7.75 7.33333 7.75L7.33333 8.25L7.33333 8.75C8.11574 8.75 8.75 8.11574 8.75 7.33333L8.25 7.33333ZM7.33333 8.25L7.33333 7.75L0.916667 7.75L0.916667 8.25L0.916667 8.75L7.33333 8.75L7.33333 8.25ZM0.916667 8.25L0.916667 7.75C0.686548 7.75 0.5 7.56345 0.5 7.33333L0 7.33333L-0.5 7.33333C-0.5 8.11574 0.134263 8.75 0.916667 8.75L0.916667 8.25ZM0 7.33333L0.5 7.33333L0.5 0.916667L0 0.916667L-0.5 0.916667L-0.5 7.33333L0 7.33333ZM0 0.916667L0.5 0.916667C0.5 0.686548 0.686548 0.5 0.916667 0.5L0.916667 0L0.916667 -0.5C0.134263 -0.5 -0.5 0.134263 -0.5 0.916667L0 0.916667Z" transform="translate(1139.38,12.875)" fill="none" stroke="#96AFB3" stroke-width="1" stroke-linecap="round" stroke-linejoin="round"/>
<rect x="1171" y="11.5" width="13" height="13" rx="0" fill="none"/>
<path d="M6.85355 0.353553C7.04882 0.158291 7.04882 -0.158291 6.85355 -0.353553C6.65829 -0.548816 6.34171 -0.548816 6.14645 -0.353553L6.5 0L6.85355 0.353553ZM-0.353553 6.14645C-0.548816 6.34171 -0.548816 6.65829 -0.353553 6.85355C-0.158291 7.04882 0.158291 7.04882 0.353553 6.85355L0 6.5L-0.353553 6.14645ZM0.353553 -0.353553C0.158291 -0.548816 -0.158291 -0.548816 -0.353553 -0.353553C-0.548816 -0.158291 -0.548816 0.158291 -0.353553 0.353553L0 0L0.353553 -0.353553ZM6.14645 6.85355C6.34171 7.04882 6.65829 7.04882 6.85355 6.85355C7.04882 6.65829 7.04882 6.34171 6.85355 6.14645L6.5 6.5L6.14645 6.85355ZM6.5 0L6.14645 -0.353553L-0.353553 6.14645L0 6.5L0.353553 6.85355L6.85355 0.353553L6.5 0ZM0 0L-0.353553 0.353553L6.14645 6.85355L6.5 6.5L6.85355 6.14645L0.353553 -0.353553L0 0Z" transform="translate(1174.25,14.75)" fill="none" stroke="#96AFB3" stroke-width="1" stroke-linecap="round" stroke-linejoin="round"/>
<rect x="0" y="36" width="1200" height="787" rx="0" fill="none"/>
<rect x="0" y="36" width="208" height="787" rx="0" fill="#172C31"/>
<rect x="20" y="64" width="168" height="463" rx="0" fill="none"/>
<rect x="20" y="64" width="103" height="39" rx="0" fill="none"/>
<rect x="20" y="68.5" width="30" height="30" rx="0" fill="none"/>
<path d="M6.60295 12.1469C6.4077 11.9516 6.09112 11.9516 5.89584 12.1468C5.70057 12.3421 5.70055 12.6587 5.8958 12.8539L6.24937 12.5004L6.60295 12.1469ZM8.74912 15.0005L8.39555 15.354L8.74912 15.7076L9.1027 15.354L8.74912 15.0005ZM14.1022 10.3539C14.2975 10.1586 14.2974 9.842 14.1022 9.64675C13.9069 9.4515 13.5903 9.45152 13.395 9.64679L13.7486 10.0003L14.1022 10.3539ZM10.424 24.9389L10.5845 25.4124L10.5885 25.411L10.424 24.9389ZM9.58654 24.9264L9.76114 24.4577L9.74977 24.4538L9.58654 24.9264ZM1.24987 3.75068L1.24987 4.25068L1.24987 3.75068ZM9.04909 0.350573L8.72426 -0.0295782L8.72012 -0.0259615L9.04909 0.350573ZM10.9489 0.350573L11.2781 -0.0258512L11.2737 -0.0295553L10.9489 0.350573ZM6.24937 12.5004L5.8958 12.8539L8.39555 15.354L8.74912 15.0005L9.1027 14.647L6.60295 12.1469L6.24937 12.5004ZM8.74912 15.0005L9.1027 15.354L14.1022 10.3539L13.7486 10.0003L13.395 9.64679L8.39555 14.647L8.74912 15.0005ZM19.998 13.751L19.498 13.751C19.498 16.7441 18.4564 18.9631 16.8027 20.6601C15.1354 22.371 12.8234 23.5729 10.2594 24.4667L10.424 24.9389L10.5885 25.411C13.224 24.4923 15.6991 23.2254 17.5189 21.358C19.3523 19.4767 20.498 17.0081 20.498 13.751L19.998 13.751ZM10.424 24.9389L10.2635 24.4653C10.1001 24.5207 9.92271 24.518 9.76109 24.4578L9.58654 24.9264L9.41199 25.3949C9.78916 25.5354 10.2032 25.5416 10.5844 25.4124L10.424 24.9389ZM9.58654 24.9264L9.74977 24.4538C7.17994 23.5662 4.86516 22.3674 3.19655 20.6582C1.54155 18.963 0.5 16.7441 0.5 13.751L0 13.751L-0.5 13.751C-0.5 17.0081 0.645728 19.4769 2.48101 21.3568C4.30267 23.2227 6.78116 24.4865 9.42332 25.399L9.58654 24.9264ZM0 13.751L0.5 13.751L0.5 5.00072L0 5.00072L-0.5 5.00072L-0.5 13.751L0 13.751ZM0 5.00072L0.5 5.00072C0.5 4.80178 0.579021 4.611 0.719657 4.47034L0.36608 4.11681L0.0125033 3.76328C-0.315654 4.09148 -0.5 4.53661 -0.5 5.00072L0 5.00072ZM0.36608 4.11681L0.719657 4.47034C0.860291 4.32969 1.05102 4.25068 1.24987 4.25068L1.24987 3.75068L1.24987 3.25068C0.785758 3.25068 0.340663 3.43508 0.0125033 3.76328L0.36608 4.11681ZM1.24987 3.75068L1.24987 4.25068C3.91145 4.25068 7.14854 2.675 9.37807 0.727108L9.04909 0.350573L8.72012 -0.0259615C6.60009 1.82627 3.5878 3.25068 1.24987 3.25068L1.24987 3.75068ZM9.04909 0.350573L9.37391 0.730702C9.54816 0.581802 9.76982 0.5 9.999 0.5L9.999 0L9.999 -0.5C9.53163 -0.5 9.07961 -0.333174 8.72428 -0.0295553L9.04909 0.350573ZM9.999 0L9.999 0.5C10.2282 0.5 10.4498 0.581802 10.6241 0.730702L10.9489 0.350573L11.2737 -0.0295553C10.9184 -0.333174 10.4664 -0.5 9.999 -0.5L9.999 0ZM10.9489 0.350573L10.6198 0.726973C12.8623 2.68783 16.0869 4.25068 18.7481 4.25068L18.7481 3.75068L18.7481 3.25068C16.4098 3.25068 13.4101 1.83844 11.278 -0.0258267L10.9489 0.350573ZM18.7481 3.75068L18.7481 4.25068C18.947 4.25068 19.1377 4.32969 19.2783 4.47034L19.6319 4.11681L19.9855 3.76328C19.6573 3.43508 19.2122 3.25068 18.7481 3.25068L18.7481 3.75068ZM19.6319 4.11681L19.2783 4.47034C19.419 4.611 19.498 4.80178 19.498 5.00072L19.998 5.00072L20.498 5.00072C20.498 4.53661 20.3137 4.09148 19.9855 3.76328L19.6319 4.11681ZM19.998 5.00072L19.498 5.00072L19.498 13.751L19.998 13.751L20.498 13.751L20.498 5.00072L19.998 5.00072Z" transform="translate(25.001,70.999)" fill="none" stroke="#68C3AD" stroke-width="1" stroke-linecap="round" stroke-linejoin="round"/>
<rect x="60" y="64" width="63" height="39" rx="0" fill="none"/>
<text font-family="Noto Sans SC, sans-serif" font-size="22" font-weight="400" fill="#FFFFFF" text-anchor="start" x="60" y="85.12">密匣</text>
<text font-family="Noto Sans SC, sans-serif" font-size="10" font-weight="400" fill="#96AFB3" text-anchor="start" x="60" y="100.6">SecretKeeper</text>
<rect x="20" y="135" width="168" height="148" rx="0" fill="none"/>
<g clip-path="url(#clip-sknav0x314)"><rect x="20" y="135" width="168" height="44" rx="8" fill="#14786E" opacity="0.16"/>
<rect x="32" y="148" width="18" height="18" rx="0" fill="none"/>
<path d="M0.439538 11.5902L0.793038 11.9438L0.793092 11.9438L0.439538 11.5902ZM0 12.6508L-0.5 12.6507L-0.5 12.6508L0 12.6508ZM0 14.2799L-0.5 14.2799L0 14.2799ZM6.8796 10.5296L6.8796 11.0296L6.87971 11.0296L6.8796 10.5296ZM7.9402 10.0901L7.58664 9.73651L7.58659 9.73657L7.9402 10.0901ZM8.55075 9.47952L8.71523 9.00734L8.419 8.90415L8.1972 9.12596L8.55075 9.47952ZM5.55049 6.47925L5.90404 6.83281L6.12585 6.611L6.02266 6.31477L5.55049 6.47925ZM0.439538 11.5902L0.0860385 11.2366C-0.289085 11.6116 -0.499887 12.1203 -0.5 12.6507L0 12.6508L0.5 12.6509C0.500057 12.3857 0.605464 12.1313 0.793038 11.9438L0.439538 11.5902ZM0 12.6508L-0.5 12.6508L-0.5 14.2799L0 14.2799L0.5 14.2799L0.5 12.6508L0 12.6508ZM0 14.2799L-0.5 14.2799C-0.5 14.6115 -0.368297 14.9294 -0.133864 15.1639L0.219689 14.8103L0.573242 14.4568C0.526346 14.4099 0.5 14.3463 0.5 14.2799L0 14.2799ZM0.219689 14.8103L-0.133864 15.1639C0.100569 15.3983 0.418529 15.53 0.750066 15.53L0.750066 15.03L0.750066 14.53C0.683743 14.53 0.620138 14.5037 0.573242 14.4568L0.219689 14.8103ZM0.750066 15.03L0.750066 15.53L3.00026 15.53L3.00026 15.03L3.00026 14.53L0.750066 14.53L0.750066 15.03ZM3.00026 15.03L3.00026 15.53C3.3318 15.53 3.64976 15.3983 3.88419 15.1639L3.53064 14.8103L3.17709 14.4568C3.13019 14.5037 3.06659 14.53 3.00026 14.53L3.00026 15.03ZM3.53064 14.8103L3.88419 15.1639C4.11863 14.9294 4.25033 14.6115 4.25033 14.2799L3.75033 14.2799L3.25033 14.2799C3.25033 14.3463 3.22398 14.4099 3.17709 14.4568L3.53064 14.8103ZM3.75033 14.2799L4.25033 14.2799L4.25033 13.5299L3.75033 13.5299L3.25033 13.5299L3.25033 14.2799L3.75033 14.2799ZM3.75033 13.5299L4.25033 13.5299C4.25033 13.4635 4.27667 13.3999 4.32357 13.353L3.97002 12.9995L3.61646 12.6459C3.38203 12.8804 3.25033 13.1983 3.25033 13.5299L3.75033 13.5299ZM3.97002 12.9995L4.32357 13.353C4.37047 13.3061 4.43407 13.2798 4.50039 13.2798L4.50039 12.7798L4.50039 12.2798C4.16886 12.2798 3.8509 12.4115 3.61646 12.6459L3.97002 12.9995ZM4.50039 12.7798L4.50039 13.2798L5.25046 13.2798L5.25046 12.7798L5.25046 12.2798L4.50039 12.2798L4.50039 12.7798ZM5.25046 12.7798L5.25046 13.2798C5.582 13.2798 5.89996 13.1481 6.13439 12.9137L5.78084 12.5601L5.42728 12.2066C5.38039 12.2535 5.31678 12.2798 5.25046 12.2798L5.25046 12.7798ZM5.78084 12.5601L6.13439 12.9137C6.36882 12.6792 6.50053 12.3613 6.50053 12.0297L6.00053 12.0297L5.50053 12.0297C5.50053 12.0961 5.47418 12.1597 5.42728 12.2066L5.78084 12.5601ZM6.00053 12.0297L6.50053 12.0297L6.50053 11.2797L6.00053 11.2797L5.50053 11.2797L5.50053 12.0297L6.00053 12.0297ZM6.00053 11.2797L6.50053 11.2797C6.50053 11.2134 6.52687 11.1497 6.57377 11.1028L6.22021 10.7493L5.86666 10.3957C5.63223 10.6302 5.50053 10.9481 5.50053 11.2797L6.00053 11.2797ZM6.22021 10.7493L6.57377 11.1028C6.62066 11.056 6.68427 11.0296 6.75059 11.0296L6.75059 10.5296L6.75059 10.0296C6.41905 10.0296 6.10109 10.1613 5.86666 10.3957L6.22021 10.7493ZM6.75059 10.5296L6.75059 11.0296L6.8796 11.0296L6.8796 10.5296L6.8796 10.0296L6.75059 10.0296L6.75059 10.5296ZM6.8796 10.5296L6.87971 11.0296C7.41013 11.0295 7.91879 10.8187 8.2938 10.4436L7.9402 10.0901L7.58659 9.73657C7.39907 9.92414 7.14473 10.0295 6.8795 10.0296L6.8796 10.5296ZM7.9402 10.0901L8.29375 10.4436L8.9043 9.83307L8.55075 9.47952L8.1972 9.12596L7.58664 9.73651L7.9402 10.0901ZM8.55075 9.47952L8.38627 9.95169C9.53565 10.3521 10.7869 10.3505 11.9353 9.94735L11.7696 9.47558L11.604 9.00381C10.6692 9.332 9.65079 9.33324 8.71523 9.00734L8.55075 9.47952ZM11.7696 9.47558L11.9353 9.94735C13.0837 9.54415 14.0612 8.76317 14.7081 7.73215L14.2845 7.46643L13.861 7.20071C13.3345 8.03993 12.5388 8.67562 11.604 9.00381L11.7696 9.47558ZM14.2845 7.46643L14.7081 7.73215C15.3549 6.70114 15.6327 5.48113 15.496 4.27171L14.9991 4.32787L14.5023 4.38402C14.6136 5.36845 14.3875 6.3615 13.861 7.20071L14.2845 7.46643ZM14.9991 4.32787L15.496 4.27171C15.3593 3.06229 14.8162 1.93507 13.9556 1.07443L13.602 1.42799L13.2485 1.78154C13.949 2.48207 14.391 3.3996 14.5023 4.38402L14.9991 4.32787ZM13.602 1.42799L13.9556 1.07443C13.0949 0.213801 11.9677 -0.329286 10.7583 -0.465982L10.7021 0.0308543L10.646 0.527691C11.6304 0.638958 12.5479 1.08101 13.2485 1.78154L13.602 1.42799ZM10.7021 0.0308543L10.7583 -0.465982C9.54887 -0.602679 8.32886 -0.324893 7.29785 0.321933L7.56357 0.745481L7.82929 1.16903C8.6685 0.642533 9.66155 0.416424 10.646 0.527691L10.7021 0.0308543ZM7.56357 0.745481L7.29785 0.321933C6.26683 0.968758 5.48585 1.94633 5.08265 3.09473L5.55442 3.26036L6.02619 3.42599C6.35438 2.49124 6.99007 1.69552 7.82929 1.16903L7.56357 0.745481ZM5.55442 3.26036L5.08265 3.09473C4.67946 4.24312 4.67793 5.49435 5.07831 6.64373L5.55049 6.47925L6.02266 6.31477C5.69676 5.37922 5.69801 4.36075 6.02619 3.42599L5.55442 3.26036ZM5.55049 6.47925L5.19693 6.1257L0.0859851 11.2366L0.439538 11.5902L0.793092 11.9438L5.90404 6.83281L5.55049 6.47925ZM11.251 4.15393L10.751 4.15393C10.751 4.08491 10.8069 4.02896 10.876 4.02896L10.876 4.52896L10.876 5.02896C11.3592 5.02896 11.751 4.6372 11.751 4.15393L11.251 4.15393ZM10.876 4.52896L10.876 4.02896C10.945 4.02896 11.0009 4.08491 11.0009 4.15393L10.5009 4.15393L10.0009 4.15393C10.0009 4.6372 10.3927 5.02896 10.876 5.02896L10.876 4.52896ZM10.5009 4.15393L11.0009 4.15393C11.0009 4.22295 10.945 4.2789 10.876 4.2789L10.876 3.7789L10.876 3.2789C10.3927 3.2789 10.0009 3.67066 10.0009 4.15393L10.5009 4.15393ZM10.876 3.7789L10.876 4.2789C10.8069 4.2789 10.751 4.22295 10.751 4.15393L11.251 4.15393L11.751 4.15393C11.751 3.67066 11.3592 3.2789 10.876 3.2789L10.876 3.7789Z" transform="translate(33.4994,149.471)" fill="none" stroke="#96AFB3" stroke-width="1" stroke-linecap="round" stroke-linejoin="round"/>
<text font-family="Noto Sans SC, sans-serif" font-size="13" font-weight="400" fill="#96AFB3" text-anchor="start" x="62" y="161.48">主密钥管理</text></g>
<g clip-path="url(#clip-sknav1x318)"><rect x="20" y="187" width="168" height="44" rx="8" fill="#FFFFFF"/>
<rect x="32" y="200" width="18" height="18" rx="0" fill="none"/>
<path d="M0.439538 11.5902L0.793038 11.9438L0.793092 11.9438L0.439538 11.5902ZM0 12.6508L-0.5 12.6507L-0.5 12.6508L0 12.6508ZM0 14.2799L-0.5 14.2799L0 14.2799ZM6.8796 10.5296L6.8796 11.0296L6.87971 11.0296L6.8796 10.5296ZM7.9402 10.0901L7.58664 9.73651L7.58659 9.73657L7.9402 10.0901ZM8.55075 9.47952L8.71523 9.00734L8.419 8.90415L8.1972 9.12596L8.55075 9.47952ZM5.55049 6.47925L5.90404 6.83281L6.12585 6.611L6.02266 6.31477L5.55049 6.47925ZM0.439538 11.5902L0.0860385 11.2366C-0.289085 11.6116 -0.499887 12.1203 -0.5 12.6507L0 12.6508L0.5 12.6509C0.500057 12.3857 0.605464 12.1313 0.793038 11.9438L0.439538 11.5902ZM0 12.6508L-0.5 12.6508L-0.5 14.2799L0 14.2799L0.5 14.2799L0.5 12.6508L0 12.6508ZM0 14.2799L-0.5 14.2799C-0.5 14.6115 -0.368297 14.9294 -0.133864 15.1639L0.219689 14.8103L0.573242 14.4568C0.526346 14.4099 0.5 14.3463 0.5 14.2799L0 14.2799ZM0.219689 14.8103L-0.133864 15.1639C0.100569 15.3983 0.418529 15.53 0.750066 15.53L0.750066 15.03L0.750066 14.53C0.683743 14.53 0.620138 14.5037 0.573242 14.4568L0.219689 14.8103ZM0.750066 15.03L0.750066 15.53L3.00026 15.53L3.00026 15.03L3.00026 14.53L0.750066 14.53L0.750066 15.03ZM3.00026 15.03L3.00026 15.53C3.3318 15.53 3.64976 15.3983 3.88419 15.1639L3.53064 14.8103L3.17709 14.4568C3.13019 14.5037 3.06659 14.53 3.00026 14.53L3.00026 15.03ZM3.53064 14.8103L3.88419 15.1639C4.11863 14.9294 4.25033 14.6115 4.25033 14.2799L3.75033 14.2799L3.25033 14.2799C3.25033 14.3463 3.22398 14.4099 3.17709 14.4568L3.53064 14.8103ZM3.75033 14.2799L4.25033 14.2799L4.25033 13.5299L3.75033 13.5299L3.25033 13.5299L3.25033 14.2799L3.75033 14.2799ZM3.75033 13.5299L4.25033 13.5299C4.25033 13.4635 4.27667 13.3999 4.32357 13.353L3.97002 12.9995L3.61646 12.6459C3.38203 12.8804 3.25033 13.1983 3.25033 13.5299L3.75033 13.5299ZM3.97002 12.9995L4.32357 13.353C4.37047 13.3061 4.43407 13.2798 4.50039 13.2798L4.50039 12.7798L4.50039 12.2798C4.16886 12.2798 3.8509 12.4115 3.61646 12.6459L3.97002 12.9995ZM4.50039 12.7798L4.50039 13.2798L5.25046 13.2798L5.25046 12.7798L5.25046 12.2798L4.50039 12.2798L4.50039 12.7798ZM5.25046 12.7798L5.25046 13.2798C5.582 13.2798 5.89996 13.1481 6.13439 12.9137L5.78084 12.5601L5.42728 12.2066C5.38039 12.2535 5.31678 12.2798 5.25046 12.2798L5.25046 12.7798ZM5.78084 12.5601L6.13439 12.9137C6.36882 12.6792 6.50053 12.3613 6.50053 12.0297L6.00053 12.0297L5.50053 12.0297C5.50053 12.0961 5.47418 12.1597 5.42728 12.2066L5.78084 12.5601ZM6.00053 12.0297L6.50053 12.0297L6.50053 11.2797L6.00053 11.2797L5.50053 11.2797L5.50053 12.0297L6.00053 12.0297ZM6.00053 11.2797L6.50053 11.2797C6.50053 11.2134 6.52687 11.1497 6.57377 11.1028L6.22021 10.7493L5.86666 10.3957C5.63223 10.6302 5.50053 10.9481 5.50053 11.2797L6.00053 11.2797ZM6.22021 10.7493L6.57377 11.1028C6.62066 11.056 6.68427 11.0296 6.75059 11.0296L6.75059 10.5296L6.75059 10.0296C6.41905 10.0296 6.10109 10.1613 5.86666 10.3957L6.22021 10.7493ZM6.75059 10.5296L6.75059 11.0296L6.8796 11.0296L6.8796 10.5296L6.8796 10.0296L6.75059 10.0296L6.75059 10.5296ZM6.8796 10.5296L6.87971 11.0296C7.41013 11.0295 7.91879 10.8187 8.2938 10.4436L7.9402 10.0901L7.58659 9.73657C7.39907 9.92414 7.14473 10.0295 6.8795 10.0296L6.8796 10.5296ZM7.9402 10.0901L8.29375 10.4436L8.9043 9.83307L8.55075 9.47952L8.1972 9.12596L7.58664 9.73651L7.9402 10.0901ZM8.55075 9.47952L8.38627 9.95169C9.53565 10.3521 10.7869 10.3505 11.9353 9.94735L11.7696 9.47558L11.604 9.00381C10.6692 9.332 9.65079 9.33324 8.71523 9.00734L8.55075 9.47952ZM11.7696 9.47558L11.9353 9.94735C13.0837 9.54415 14.0612 8.76317 14.7081 7.73215L14.2845 7.46643L13.861 7.20071C13.3345 8.03993 12.5388 8.67562 11.604 9.00381L11.7696 9.47558ZM14.2845 7.46643L14.7081 7.73215C15.3549 6.70114 15.6327 5.48113 15.496 4.27171L14.9991 4.32787L14.5023 4.38402C14.6136 5.36845 14.3875 6.3615 13.861 7.20071L14.2845 7.46643ZM14.9991 4.32787L15.496 4.27171C15.3593 3.06229 14.8162 1.93507 13.9556 1.07443L13.602 1.42799L13.2485 1.78154C13.949 2.48207 14.391 3.3996 14.5023 4.38402L14.9991 4.32787ZM13.602 1.42799L13.9556 1.07443C13.0949 0.213801 11.9677 -0.329286 10.7583 -0.465982L10.7021 0.0308543L10.646 0.527691C11.6304 0.638958 12.5479 1.08101 13.2485 1.78154L13.602 1.42799ZM10.7021 0.0308543L10.7583 -0.465982C9.54887 -0.602679 8.32886 -0.324893 7.29785 0.321933L7.56357 0.745481L7.82929 1.16903C8.6685 0.642533 9.66155 0.416424 10.646 0.527691L10.7021 0.0308543ZM7.56357 0.745481L7.29785 0.321933C6.26683 0.968758 5.48585 1.94633 5.08265 3.09473L5.55442 3.26036L6.02619 3.42599C6.35438 2.49124 6.99007 1.69552 7.82929 1.16903L7.56357 0.745481ZM5.55442 3.26036L5.08265 3.09473C4.67946 4.24312 4.67793 5.49435 5.07831 6.64373L5.55049 6.47925L6.02266 6.31477C5.69676 5.37922 5.69801 4.36075 6.02619 3.42599L5.55442 3.26036ZM5.55049 6.47925L5.19693 6.1257L0.0859851 11.2366L0.439538 11.5902L0.793092 11.9438L5.90404 6.83281L5.55049 6.47925ZM11.251 4.15393L10.751 4.15393C10.751 4.08491 10.8069 4.02896 10.876 4.02896L10.876 4.52896L10.876 5.02896C11.3592 5.02896 11.751 4.6372 11.751 4.15393L11.251 4.15393ZM10.876 4.52896L10.876 4.02896C10.945 4.02896 11.0009 4.08491 11.0009 4.15393L10.5009 4.15393L10.0009 4.15393C10.0009 4.6372 10.3927 5.02896 10.876 5.02896L10.876 4.52896ZM10.5009 4.15393L11.0009 4.15393C11.0009 4.22295 10.945 4.2789 10.876 4.2789L10.876 3.7789L10.876 3.2789C10.3927 3.2789 10.0009 3.67066 10.0009 4.15393L10.5009 4.15393ZM10.876 3.7789L10.876 4.2789C10.8069 4.2789 10.751 4.22295 10.751 4.15393L11.251 4.15393L11.751 4.15393C11.751 3.67066 11.3592 3.2789 10.876 3.2789L10.876 3.7789Z" transform="translate(33.4994,201.471)" fill="none" stroke="#96AFB3" stroke-width="1" stroke-linecap="round" stroke-linejoin="round"/>
<text font-family="Noto Sans SC, sans-serif" font-size="13" font-weight="400" fill="#96AFB3" text-anchor="start" x="62" y="213.48">机密信息管理</text></g>
<g clip-path="url(#clip-sknav2x322)"><rect x="20" y="239" width="168" height="44" rx="8" fill="#FFFFFF"/>
<rect x="32" y="252" width="18" height="18" rx="0" fill="none"/>
<path d="M0.439538 11.5902L0.793038 11.9438L0.793092 11.9438L0.439538 11.5902ZM0 12.6508L-0.5 12.6507L-0.5 12.6508L0 12.6508ZM0 14.2799L-0.5 14.2799L0 14.2799ZM6.8796 10.5296L6.8796 11.0296L6.87971 11.0296L6.8796 10.5296ZM7.9402 10.0901L7.58664 9.73651L7.58659 9.73657L7.9402 10.0901ZM8.55075 9.47952L8.71523 9.00734L8.419 8.90415L8.1972 9.12596L8.55075 9.47952ZM5.55049 6.47925L5.90404 6.83281L6.12585 6.611L6.02266 6.31477L5.55049 6.47925ZM0.439538 11.5902L0.0860385 11.2366C-0.289085 11.6116 -0.499887 12.1203 -0.5 12.6507L0 12.6508L0.5 12.6509C0.500057 12.3857 0.605464 12.1313 0.793038 11.9438L0.439538 11.5902ZM0 12.6508L-0.5 12.6508L-0.5 14.2799L0 14.2799L0.5 14.2799L0.5 12.6508L0 12.6508ZM0 14.2799L-0.5 14.2799C-0.5 14.6115 -0.368297 14.9294 -0.133864 15.1639L0.219689 14.8103L0.573242 14.4568C0.526346 14.4099 0.5 14.3463 0.5 14.2799L0 14.2799ZM0.219689 14.8103L-0.133864 15.1639C0.100569 15.3983 0.418529 15.53 0.750066 15.53L0.750066 15.03L0.750066 14.53C0.683743 14.53 0.620138 14.5037 0.573242 14.4568L0.219689 14.8103ZM0.750066 15.03L0.750066 15.53L3.00026 15.53L3.00026 15.03L3.00026 14.53L0.750066 14.53L0.750066 15.03ZM3.00026 15.03L3.00026 15.53C3.3318 15.53 3.64976 15.3983 3.88419 15.1639L3.53064 14.8103L3.17709 14.4568C3.13019 14.5037 3.06659 14.53 3.00026 14.53L3.00026 15.03ZM3.53064 14.8103L3.88419 15.1639C4.11863 14.9294 4.25033 14.6115 4.25033 14.2799L3.75033 14.2799L3.25033 14.2799C3.25033 14.3463 3.22398 14.4099 3.17709 14.4568L3.53064 14.8103ZM3.75033 14.2799L4.25033 14.2799L4.25033 13.5299L3.75033 13.5299L3.25033 13.5299L3.25033 14.2799L3.75033 14.2799ZM3.75033 13.5299L4.25033 13.5299C4.25033 13.4635 4.27667 13.3999 4.32357 13.353L3.97002 12.9995L3.61646 12.6459C3.38203 12.8804 3.25033 13.1983 3.25033 13.5299L3.75033 13.5299ZM3.97002 12.9995L4.32357 13.353C4.37047 13.3061 4.43407 13.2798 4.50039 13.2798L4.50039 12.7798L4.50039 12.2798C4.16886 12.2798 3.8509 12.4115 3.61646 12.6459L3.97002 12.9995ZM4.50039 12.7798L4.50039 13.2798L5.25046 13.2798L5.25046 12.7798L5.25046 12.2798L4.50039 12.2798L4.50039 12.7798ZM5.25046 12.7798L5.25046 13.2798C5.582 13.2798 5.89996 13.1481 6.13439 12.9137L5.78084 12.5601L5.42728 12.2066C5.38039 12.2535 5.31678 12.2798 5.25046 12.2798L5.25046 12.7798ZM5.78084 12.5601L6.13439 12.9137C6.36882 12.6792 6.50053 12.3613 6.50053 12.0297L6.00053 12.0297L5.50053 12.0297C5.50053 12.0961 5.47418 12.1597 5.42728 12.2066L5.78084 12.5601ZM6.00053 12.0297L6.50053 12.0297L6.50053 11.2797L6.00053 11.2797L5.50053 11.2797L5.50053 12.0297L6.00053 12.0297ZM6.00053 11.2797L6.50053 11.2797C6.50053 11.2134 6.52687 11.1497 6.57377 11.1028L6.22021 10.7493L5.86666 10.3957C5.63223 10.6302 5.50053 10.9481 5.50053 11.2797L6.00053 11.2797ZM6.22021 10.7493L6.57377 11.1028C6.62066 11.056 6.68427 11.0296 6.75059 11.0296L6.75059 10.5296L6.75059 10.0296C6.41905 10.0296 6.10109 10.1613 5.86666 10.3957L6.22021 10.7493ZM6.75059 10.5296L6.75059 11.0296L6.8796 11.0296L6.8796 10.5296L6.8796 10.0296L6.75059 10.0296L6.75059 10.5296ZM6.8796 10.5296L6.87971 11.0296C7.41013 11.0295 7.91879 10.8187 8.2938 10.4436L7.9402 10.0901L7.58659 9.73657C7.39907 9.92414 7.14473 10.0295 6.8795 10.0296L6.8796 10.5296ZM7.9402 10.0901L8.29375 10.4436L8.9043 9.83307L8.55075 9.47952L8.1972 9.12596L7.58664 9.73651L7.9402 10.0901ZM8.55075 9.47952L8.38627 9.95169C9.53565 10.3521 10.7869 10.3505 11.9353 9.94735L11.7696 9.47558L11.604 9.00381C10.6692 9.332 9.65079 9.33324 8.71523 9.00734L8.55075 9.47952ZM11.7696 9.47558L11.9353 9.94735C13.0837 9.54415 14.0612 8.76317 14.7081 7.73215L14.2845 7.46643L13.861 7.20071C13.3345 8.03993 12.5388 8.67562 11.604 9.00381L11.7696 9.47558ZM14.2845 7.46643L14.7081 7.73215C15.3549 6.70114 15.6327 5.48113 15.496 4.27171L14.9991 4.32787L14.5023 4.38402C14.6136 5.36845 14.3875 6.3615 13.861 7.20071L14.2845 7.46643ZM14.9991 4.32787L15.496 4.27171C15.3593 3.06229 14.8162 1.93507 13.9556 1.07443L13.602 1.42799L13.2485 1.78154C13.949 2.48207 14.391 3.3996 14.5023 4.38402L14.9991 4.32787ZM13.602 1.42799L13.9556 1.07443C13.0949 0.213801 11.9677 -0.329286 10.7583 -0.465982L10.7021 0.0308543L10.646 0.527691C11.6304 0.638958 12.5479 1.08101 13.2485 1.78154L13.602 1.42799ZM10.7021 0.0308543L10.7583 -0.465982C9.54887 -0.602679 8.32886 -0.324893 7.29785 0.321933L7.56357 0.745481L7.82929 1.16903C8.6685 0.642533 9.66155 0.416424 10.646 0.527691L10.7021 0.0308543ZM7.56357 0.745481L7.29785 0.321933C6.26683 0.968758 5.48585 1.94633 5.08265 3.09473L5.55442 3.26036L6.02619 3.42599C6.35438 2.49124 6.99007 1.69552 7.82929 1.16903L7.56357 0.745481ZM5.55442 3.26036L5.08265 3.09473C4.67946 4.24312 4.67793 5.49435 5.07831 6.64373L5.55049 6.47925L6.02266 6.31477C5.69676 5.37922 5.69801 4.36075 6.02619 3.42599L5.55442 3.26036ZM5.55049 6.47925L5.19693 6.1257L0.0859851 11.2366L0.439538 11.5902L0.793092 11.9438L5.90404 6.83281L5.55049 6.47925ZM11.251 4.15393L10.751 4.15393C10.751 4.08491 10.8069 4.02896 10.876 4.02896L10.876 4.52896L10.876 5.02896C11.3592 5.02896 11.751 4.6372 11.751 4.15393L11.251 4.15393ZM10.876 4.52896L10.876 4.02896C10.945 4.02896 11.0009 4.08491 11.0009 4.15393L10.5009 4.15393L10.0009 4.15393C10.0009 4.6372 10.3927 5.02896 10.876 5.02896L10.876 4.52896ZM10.5009 4.15393L11.0009 4.15393C11.0009 4.22295 10.945 4.2789 10.876 4.2789L10.876 3.7789L10.876 3.2789C10.3927 3.2789 10.0009 3.67066 10.0009 4.15393L10.5009 4.15393ZM10.876 3.7789L10.876 4.2789C10.8069 4.2789 10.751 4.22295 10.751 4.15393L11.251 4.15393L11.751 4.15393C11.751 3.67066 11.3592 3.2789 10.876 3.2789L10.876 3.7789Z" transform="translate(33.4994,253.471)" fill="none" stroke="#96AFB3" stroke-width="1" stroke-linecap="round" stroke-linejoin="round"/>
<text font-family="Noto Sans SC, sans-serif" font-size="13" font-weight="400" fill="#96AFB3" text-anchor="start" x="62" y="265.48">安全设置</text></g>
<g clip-path="url(#clip-327634x326)"><rect x="20" y="315" width="168" height="108" rx="8" fill="none" stroke="#355057" stroke-width="1"/>
<text font-family="Noto Sans SC, sans-serif" font-size="11" font-weight="400" fill="#96AFB3" text-anchor="start" x="32" y="337.56">基础版 · 本地存储</text>
<rect x="32" y="352" width="144" height="16" rx="0" fill="none"/>
<text font-family="Noto Sans SC, sans-serif" font-size="12" font-weight="400" fill="#FFFFFF" text-anchor="start" x="32" y="363.52">机密信息</text>
<text font-family="IBM Plex Mono, sans-serif" font-size="12" font-weight="400" fill="#FFFFFF" text-anchor="start" x="132" y="364.48">8 / 15</text>
<g clip-path="url(#clip-327639x331)"><rect x="32" y="380" width="144" height="3" rx="2" fill="#355057"/>
<rect x="32" y="380" width="76" height="3" rx="0" fill="#68C3AD"/></g>
<rect x="32" y="395" width="144" height="16" rx="0" fill="none"/>
<text font-family="Noto Sans SC, sans-serif" font-size="12" font-weight="400" fill="#FFFFFF" text-anchor="start" x="32" y="406.52">主密钥</text>
<text font-family="IBM Plex Mono, sans-serif" font-size="12" font-weight="400" fill="#FFFFFF" text-anchor="start" x="140" y="407.48">2 / 2</text></g>
<rect x="20" y="763" width="168" height="40" rx="0" fill="none"/>
<g clip-path="url(#clip-327645x337)"><rect x="20" y="763" width="168" height="40" rx="8" fill="none" stroke="#355057" stroke-width="1"/>
<rect x="32" y="775" width="16" height="16" rx="0" fill="none"/>
<path d="M2.16667 5.33376C2.16667 5.6099 2.39052 5.83376 2.66667 5.83376C2.94281 5.83376 3.16667 5.6099 3.16667 5.33376L2.66667 5.33376L2.16667 5.33376ZM2.66667 3.3336L2.16667 3.3336L2.66667 3.3336ZM6 0L6 -0.5L6 0ZM8.83333 5.33376C8.83333 5.6099 9.05719 5.83376 9.33333 5.83376C9.60948 5.83376 9.83333 5.6099 9.83333 5.33376L9.33333 5.33376L8.83333 5.33376ZM2.66667 5.33376L3.16667 5.33376L3.16667 3.3336L2.66667 3.3336L2.16667 3.3336L2.16667 5.33376L2.66667 5.33376ZM2.66667 3.3336L3.16667 3.3336C3.16667 2.58207 3.46519 1.86133 3.99655 1.32993L3.64298 0.976389L3.28941 0.62285C2.57052 1.34179 2.16667 2.31688 2.16667 3.3336L2.66667 3.3336ZM3.64298 0.976389L3.99655 1.32993C4.5279 0.798529 5.24857 0.5 6 0.5L6 0L6 -0.5C4.98332 -0.5 4.0083 -0.0960943 3.28941 0.62285L3.64298 0.976389ZM6 0L6 0.5C6.75143 0.5 7.4721 0.798529 8.00346 1.32993L8.35702 0.976389L8.71059 0.62285C7.9917 -0.0960943 7.01668 -0.5 6 -0.5L6 0ZM8.35702 0.976389L8.00346 1.32993C8.53481 1.86133 8.83333 2.58207 8.83333 3.3336L9.33333 3.3336L9.83333 3.3336C9.83333 2.31688 9.42948 1.34179 8.71059 0.62285L8.35702 0.976389ZM9.33333 3.3336L8.83333 3.3336L8.83333 5.33376L9.33333 5.33376L9.83333 5.33376L9.83333 3.3336L9.33333 3.3336ZM6.66667 9.33408L6.16667 9.33408C6.16667 9.4262 6.09201 9.5008 6 9.5008L6 10.0008L6 10.5008C6.64437 10.5008 7.16667 9.9784 7.16667 9.33408L6.66667 9.33408ZM6 10.0008L6 9.5008C5.90799 9.5008 5.83333 9.4262 5.83333 9.33408L5.33333 9.33408L4.83333 9.33408C4.83333 9.9784 5.35563 10.5008 6 10.5008L6 10.0008ZM5.33333 9.33408L5.83333 9.33408C5.83333 9.24197 5.90799 9.16736 6 9.16736L6 8.66736L6 8.16736C5.35563 8.16736 4.83333 8.68976 4.83333 9.33408L5.33333 9.33408ZM6 8.66736L6 9.16736C6.09201 9.16736 6.16667 9.24197 6.16667 9.33408L6.66667 9.33408L7.16667 9.33408C7.16667 8.68976 6.64437 8.16736 6 8.16736L6 8.66736ZM1.33333 5.33376L1.33333 5.83376L10.6667 5.83376L10.6667 5.33376L10.6667 4.83376L1.33333 4.83376L1.33333 5.33376ZM10.6667 5.33376L10.6667 5.83376C11.1269 5.83376 11.5 6.20687 11.5 6.6672L12 6.6672L12.5 6.6672C12.5 5.65466 11.6792 4.83376 10.6667 4.83376L10.6667 5.33376ZM12 6.6672L11.5 6.6672L11.5 12.001L12 12.001L12.5 12.001L12.5 6.6672L12 6.6672ZM12 12.001L11.5 12.001C11.5 12.4613 11.1269 12.8344 10.6667 12.8344L10.6667 13.3344L10.6667 13.8344C11.6792 13.8344 12.5 13.0135 12.5 12.001L12 12.001ZM10.6667 13.3344L10.6667 12.8344L1.33333 12.8344L1.33333 13.3344L1.33333 13.8344L10.6667 13.8344L10.6667 13.3344ZM1.33333 13.3344L1.33333 12.8344C0.873134 12.8344 0.5 12.4613 0.5 12.001L0 12.001L-0.5 12.001C-0.5 13.0135 0.320774 13.8344 1.33333 13.8344L1.33333 13.3344ZM0 12.001L0.5 12.001L0.5 6.6672L0 6.6672L-0.5 6.6672L-0.5 12.001L0 12.001ZM0 6.6672L0.5 6.6672C0.5 6.20687 0.873134 5.83376 1.33333 5.83376L1.33333 5.33376L1.33333 4.83376C0.320774 4.83376 -0.5 5.65466 -0.5 6.6672L0 6.6672Z" transform="translate(34,747.333)" fill="none" stroke="#96AFB3" stroke-width="1" stroke-linecap="round" stroke-linejoin="round"/>
<text font-family="Noto Sans SC, sans-serif" font-size="12" font-weight="400" fill="#FFFFFF" text-anchor="start" x="58" y="786.52">立即锁定</text></g>
<rect x="208" y="36" width="0" height="787" rx="0" fill="none"/>
<rect x="240" y="68" width="0" height="61" rx="0" fill="none"/>
<rect x="240" y="68" width="928" height="61" rx="0" fill="none"/>
<text font-family="Noto Sans SC, sans-serif" font-size="24" font-weight="400" fill="#1D2C31" text-anchor="start" x="240" y="93.92">导入主密钥</text>
<text font-family="Noto Sans SC, sans-serif" font-size="13" font-weight="400" fill="#718087" text-anchor="start" x="240" y="124.64">从之前导出的备份文件恢复主密钥，导入后作为保存。</text>
<rect x="240" y="153" width="0" height="593" rx="0" fill="none"/>
<g clip-path="url(#clip-327655x347)"><rect x="240" y="153" width="928" height="460" rx="12" fill="#FFFFFF" stroke="#DFE5E7" stroke-width="1"/>
<g clip-path="url(#clip-skimpfilex348)"><rect x="264" y="177" width="532" height="96" rx="12" fill="#F3F5F6"/>
<text font-family="Noto Sans SC, sans-serif" font-size="14" font-weight="400" fill="#1D2C31" text-anchor="start" x="628" y="216.68">主密钥备份.key</text>
<text font-family="Noto Sans SC, sans-serif" font-size="12" font-weight="400" fill="#718087" text-anchor="start" x="628" y="242.44">本地文件 · 已选择</text>
<g clip-path="url(#clip-skimppickx351)"><rect x="1048" y="208" width="96" height="34" rx="8" fill="#FFFFFF"/>
<text font-family="Noto Sans SC, sans-serif" font-size="13" font-weight="400" fill="#1D2C31" text-anchor="start" x="1064" y="230.56">重新选择文件</text></g></g>
<rect x="264" y="293" width="532" height="104" rx="0" fill="none"/>
<text font-family="Noto Sans SC, sans-serif" font-size="13" font-weight="400" fill="#1D2C31" text-anchor="start" x="264" y="307.56">文件保护密码</text>
<g clip-path="url(#clip-skr22439118x355)"><rect x="264" y="321.2" width="532" height="46" rx="8" fill="#FFFFFF" stroke="#DFE5E7" stroke-width="1"/>
<text font-family="Noto Sans SC, sans-serif" font-size="15" font-weight="400" fill="#1D2C31" text-anchor="start" x="278" y="350.5">•••••••••••</text>
<rect x="756" y="335.2" width="18" height="18" rx="0" fill="none"/>
<path d="M6.49152 1.81106C6.21731 1.84374 6.02152 2.09252 6.0542 2.36672C6.08688 2.64092 6.33566 2.83671 6.60986 2.80403L6.55069 2.30754L6.49152 1.81106ZM14.9543 7.23919L15.4231 7.0652L15.42 7.0569L15.4166 7.0487L14.9543 7.23919ZM14.9543 7.76123L15.4166 7.95187L15.42 7.9436L15.4231 7.93522L14.9543 7.76123ZM13.4763 9.3224C13.307 9.54059 13.3467 9.85467 13.5649 10.0239C13.783 10.1932 14.0971 10.1535 14.2664 9.93536L13.8713 9.62888L13.4763 9.3224ZM9.41108 9.47887C9.6097 9.28702 9.61518 8.97048 9.42333 8.77187C9.23149 8.57325 8.91495 8.56776 8.71633 8.75961L9.06371 9.11924L9.41108 9.47887ZM6.24191 6.28483C6.43374 6.08619 6.42823 5.76966 6.22959 5.57783C6.03096 5.386 5.71442 5.39151 5.52259 5.59015L5.88225 5.93749L6.24191 6.28483ZM11.8643 12.0552C12.1019 11.9145 12.1804 11.6078 12.0396 11.3702C11.8989 11.1326 11.5922 11.0541 11.3546 11.1948L11.6095 11.625L11.8643 12.0552ZM0.0468784 7.76146L-0.421874 7.93545L-0.418771 7.94381L-0.415371 7.95205L0.0468784 7.76146ZM0.0468784 7.23942L-0.41537 7.04883L-0.41877 7.05707L-0.421874 7.06544L0.0468784 7.23942ZM3.6368 3.81167C3.87418 3.67058 3.95223 3.36377 3.81114 3.12639C3.67005 2.88902 3.36324 2.81096 3.12586 2.95205L3.38133 3.38186L3.6368 3.81167ZM0.354302 -0.353537C0.159049 -0.548808 -0.157533 -0.548823 -0.352804 -0.35357C-0.548076 -0.158317 -0.548091 0.158265 -0.352838 0.353537L0.000732407 0L0.354302 -0.353537ZM14.647 15.3547C14.8422 15.55 15.1588 15.55 15.3541 15.3548C15.5493 15.1595 15.5493 14.8429 15.3541 14.6477L15.0005 15.0012L14.647 15.3547ZM6.55069 2.30754L6.60986 2.80403C8.24846 2.60874 9.90594 2.95516 11.3292 3.79039L11.5823 3.35916L11.8353 2.92794C10.2238 1.98218 8.34694 1.58992 6.49152 1.81106L6.55069 2.30754ZM11.5823 3.35916L11.3292 3.79039C12.7525 4.62563 13.8633 5.90378 14.492 7.42968L14.9543 7.23919L15.4166 7.0487C14.7047 5.32095 13.4469 3.87369 11.8353 2.92794L11.5823 3.35916ZM14.9543 7.23919L14.4856 7.41317C14.5064 7.46933 14.5064 7.53109 14.4856 7.58725L14.9543 7.76123L15.4231 7.93522C15.5272 7.65457 15.5272 7.34585 15.4231 7.0652L14.9543 7.23919ZM14.9543 7.76123L14.4921 7.5706C14.2336 8.19744 13.8919 8.78666 13.4763 9.3224L13.8713 9.62888L14.2664 9.93536C14.737 9.32876 15.1238 8.66162 15.4166 7.95187L14.9543 7.76123ZM9.06371 9.11924L8.71633 8.75961C8.38628 9.07842 7.94424 9.25481 7.48542 9.25083L7.48108 9.75081L7.47673 10.2508C8.19778 10.2571 8.89243 9.97984 9.41108 9.47887L9.06371 9.11924ZM7.48108 9.75081L7.48542 9.25083C7.0266 9.24684 6.58769 9.06279 6.26323 8.73829L5.90966 9.09183L5.55609 9.44537C6.06595 9.95528 6.75568 10.2445 7.47673 10.2508L7.48108 9.75081ZM5.90966 9.09183L6.26323 8.73829C5.93877 8.4138 5.75471 7.97483 5.75072 7.51592L5.25074 7.52027L4.75076 7.52461C4.75703 8.24568 5.04623 8.93546 5.55609 9.44537L5.90966 9.09183ZM5.25074 7.52027L5.75072 7.51592C5.74674 7.05701 5.92314 6.61491 6.24191 6.28483L5.88225 5.93749L5.52259 5.59015C5.02167 6.10884 4.7445 6.80354 4.75076 7.52461L5.25074 7.52027ZM11.6095 11.625L11.3546 11.1948C10.4214 11.7477 9.38029 12.0933 8.30179 12.2082L8.35478 12.7054L8.40777 13.2026C9.62889 13.0724 10.8077 12.6811 11.8643 12.0552L11.6095 11.625ZM8.35478 12.7054L8.30179 12.2082C7.2233 12.3232 6.1327 12.2047 5.10399 11.861L4.94553 12.3352L4.78707 12.8095C5.95182 13.1987 7.18665 13.3327 8.40777 13.2026L8.35478 12.7054ZM4.94553 12.3352L5.10399 11.861C4.07529 11.5173 3.13254 10.9563 2.33974 10.216L1.99851 10.5815L1.65728 10.947C2.55492 11.7851 3.62233 12.4203 4.78707 12.8095L4.94553 12.3352ZM1.99851 10.5815L2.33974 10.216C1.54693 9.4758 0.922603 8.57368 0.509128 7.57087L0.0468784 7.76146L-0.415371 7.95205C0.0527711 9.08745 0.759642 10.1089 1.65728 10.947L1.99851 10.5815ZM0.0468784 7.76146L0.515631 7.58748C0.49479 7.53133 0.49479 7.46956 0.515631 7.41341L0.0468784 7.23942L-0.421874 7.06544C-0.526042 7.34608 -0.526042 7.6548 -0.421874 7.93545L0.0468784 7.76146ZM0.0468784 7.23942L0.509127 7.43002C1.13286 5.91728 2.23032 4.64765 3.6368 3.81167L3.38133 3.38186L3.12586 2.95205C1.53339 3.89858 0.290827 5.33609 -0.41537 7.04883L0.0468784 7.23942ZM0.000732407 0L-0.352838 0.353537L14.647 15.3547L15.0005 15.0012L15.3541 14.6477L0.354302 -0.353537L0.000732407 0Z" transform="translate(1113.5,343.5)" fill="none" stroke="#718087" stroke-width="1" stroke-linecap="round" stroke-linejoin="round"/></g>
<text font-family="Noto Sans SC, sans-serif" font-size="12" font-weight="400" fill="#718087" text-anchor="start" x="264" y="390.64">导出时为这份备份设定的密码。</text>
<rect x="264" y="417" width="532" height="104" rx="0" fill="none"/>
<text font-family="Noto Sans SC, sans-serif" font-size="13" font-weight="400" fill="#1D2C31" text-anchor="start" x="264" y="431.56">新的主密钥密码</text>
<g clip-path="url(#clip-skr224310358x362)"><rect x="264" y="445.2" width="532" height="46" rx="8" fill="#FFFFFF" stroke="#DFE5E7" stroke-width="1"/>
<text font-family="Noto Sans SC, sans-serif" font-size="15" font-weight="400" fill="#1D2C31" text-anchor="start" x="278" y="474.5">•••••••••••</text>
<rect x="756" y="459.2" width="18" height="18" rx="0" fill="none"/>
<path d="M6.49152 1.81106C6.21731 1.84374 6.02152 2.09252 6.0542 2.36672C6.08688 2.64092 6.33566 2.83671 6.60986 2.80403L6.55069 2.30754L6.49152 1.81106ZM14.9543 7.23919L15.4231 7.0652L15.42 7.0569L15.4166 7.0487L14.9543 7.23919ZM14.9543 7.76123L15.4166 7.95187L15.42 7.9436L15.4231 7.93522L14.9543 7.76123ZM13.4763 9.3224C13.307 9.54059 13.3467 9.85467 13.5649 10.0239C13.783 10.1932 14.0971 10.1535 14.2664 9.93536L13.8713 9.62888L13.4763 9.3224ZM9.41108 9.47887C9.6097 9.28702 9.61518 8.97048 9.42333 8.77187C9.23149 8.57325 8.91495 8.56776 8.71633 8.75961L9.06371 9.11924L9.41108 9.47887ZM6.24191 6.28483C6.43374 6.08619 6.42823 5.76966 6.22959 5.57783C6.03096 5.386 5.71442 5.39151 5.52259 5.59015L5.88225 5.93749L6.24191 6.28483ZM11.8643 12.0552C12.1019 11.9145 12.1804 11.6078 12.0396 11.3702C11.8989 11.1326 11.5922 11.0541 11.3546 11.1948L11.6095 11.625L11.8643 12.0552ZM0.0468784 7.76146L-0.421874 7.93545L-0.418771 7.94381L-0.415371 7.95205L0.0468784 7.76146ZM0.0468784 7.23942L-0.41537 7.04883L-0.41877 7.05707L-0.421874 7.06544L0.0468784 7.23942ZM3.6368 3.81167C3.87418 3.67058 3.95223 3.36377 3.81114 3.12639C3.67005 2.88902 3.36324 2.81096 3.12586 2.95205L3.38133 3.38186L3.6368 3.81167ZM0.354302 -0.353537C0.159049 -0.548808 -0.157533 -0.548823 -0.352804 -0.35357C-0.548076 -0.158317 -0.548091 0.158265 -0.352838 0.353537L0.000732407 0L0.354302 -0.353537ZM14.647 15.3547C14.8422 15.55 15.1588 15.55 15.3541 15.3548C15.5493 15.1595 15.5493 14.8429 15.3541 14.6477L15.0005 15.0012L14.647 15.3547ZM6.55069 2.30754L6.60986 2.80403C8.24846 2.60874 9.90594 2.95516 11.3292 3.79039L11.5823 3.35916L11.8353 2.92794C10.2238 1.98218 8.34694 1.58992 6.49152 1.81106L6.55069 2.30754ZM11.5823 3.35916L11.3292 3.79039C12.7525 4.62563 13.8633 5.90378 14.492 7.42968L14.9543 7.23919L15.4166 7.0487C14.7047 5.32095 13.4469 3.87369 11.8353 2.92794L11.5823 3.35916ZM14.9543 7.23919L14.4856 7.41317C14.5064 7.46933 14.5064 7.53109 14.4856 7.58725L14.9543 7.76123L15.4231 7.93522C15.5272 7.65457 15.5272 7.34585 15.4231 7.0652L14.9543 7.23919ZM14.9543 7.76123L14.4921 7.5706C14.2336 8.19744 13.8919 8.78666 13.4763 9.3224L13.8713 9.62888L14.2664 9.93536C14.737 9.32876 15.1238 8.66162 15.4166 7.95187L14.9543 7.76123ZM9.06371 9.11924L8.71633 8.75961C8.38628 9.07842 7.94424 9.25481 7.48542 9.25083L7.48108 9.75081L7.47673 10.2508C8.19778 10.2571 8.89243 9.97984 9.41108 9.47887L9.06371 9.11924ZM7.48108 9.75081L7.48542 9.25083C7.0266 9.24684 6.58769 9.06279 6.26323 8.73829L5.90966 9.09183L5.55609 9.44537C6.06595 9.95528 6.75568 10.2445 7.47673 10.2508L7.48108 9.75081ZM5.90966 9.09183L6.26323 8.73829C5.93877 8.4138 5.75471 7.97483 5.75072 7.51592L5.25074 7.52027L4.75076 7.52461C4.75703 8.24568 5.04623 8.93546 5.55609 9.44537L5.90966 9.09183ZM5.25074 7.52027L5.75072 7.51592C5.74674 7.05701 5.92314 6.61491 6.24191 6.28483L5.88225 5.93749L5.52259 5.59015C5.02167 6.10884 4.7445 6.80354 4.75076 7.52461L5.25074 7.52027ZM11.6095 11.625L11.3546 11.1948C10.4214 11.7477 9.38029 12.0933 8.30179 12.2082L8.35478 12.7054L8.40777 13.2026C9.62889 13.0724 10.8077 12.6811 11.8643 12.0552L11.6095 11.625ZM8.35478 12.7054L8.30179 12.2082C7.2233 12.3232 6.1327 12.2047 5.10399 11.861L4.94553 12.3352L4.78707 12.8095C5.95182 13.1987 7.18665 13.3327 8.40777 13.2026L8.35478 12.7054ZM4.94553 12.3352L5.10399 11.861C4.07529 11.5173 3.13254 10.9563 2.33974 10.216L1.99851 10.5815L1.65728 10.947C2.55492 11.7851 3.62233 12.4203 4.78707 12.8095L4.94553 12.3352ZM1.99851 10.5815L2.33974 10.216C1.54693 9.4758 0.922603 8.57368 0.509128 7.57087L0.0468784 7.76146L-0.415371 7.95205C0.0527711 9.08745 0.759642 10.1089 1.65728 10.947L1.99851 10.5815ZM0.0468784 7.76146L0.515631 7.58748C0.49479 7.53133 0.49479 7.46956 0.515631 7.41341L0.0468784 7.23942L-0.421874 7.06544C-0.526042 7.34608 -0.526042 7.6548 -0.421874 7.93545L0.0468784 7.76146ZM0.0468784 7.23942L0.509127 7.43002C1.13286 5.91728 2.23032 4.64765 3.6368 3.81167L3.38133 3.38186L3.12586 2.95205C1.53339 3.89858 0.290827 5.33609 -0.41537 7.04883L0.0468784 7.23942ZM0.000732407 0L-0.352838 0.353537L14.647 15.3547L15.0005 15.0012L15.3541 14.6477L0.354302 -0.353537L0.000732407 0Z" transform="translate(1113.5,467.5)" fill="none" stroke="#718087" stroke-width="1" stroke-linecap="round" stroke-linejoin="round"/></g>
<text font-family="Noto Sans SC, sans-serif" font-size="12" font-weight="400" fill="#718087" text-anchor="start" x="264" y="514.64">为本机保存的主密钥新设密码。</text>
<rect x="264" y="541" width="532" height="44" rx="0" fill="none"/>
<g clip-path="url(#clip-skimpgox368)"><rect x="612" y="545" width="168" height="44" rx="8" fill="#14786E"/>
<text font-family="Noto Sans SC, sans-serif" font-size="14" font-weight="400" fill="#FFFFFF" text-anchor="start" x="636" y="573.68">导入为主密钥</text></g>
<g clip-path="url(#clip-skimpcancelx370)"><rect x="792" y="545" width="106" height="44" rx="8" fill="#FFFFFF"/>
<text font-family="Noto Sans SC, sans-serif" font-size="14" font-weight="400" fill="#1D2C31" text-anchor="start" x="816" y="573.68">返回管理</text></g></g></g>
</svg>